{
  "accessors": [
    {
      "bufferView": 1,
      "componentType": 5126,
      "count": 4800,
      "max": [
        3.8044099807739258,
        5.1675400733947754,
        2.6463499069213867
      ],
      "min": [
        -2.1641600131988525,
        -1,
        -2.7360498905181885
      ],
      "type": "VEC3"
    },
    {
      "bufferView": 1,
      "byteOffset": 57600,
      "componentType": 5126,
      "count": 4800,
      "max": [
        0.99207723140716553,
        0.94352102279663086,
        0.94352495670318604
      ],
      "min": [
        -0.99207723140716553,
        -0.94352102279663086,
        -0.94352495670318604
      ],
      "type": "VEC3"
    },
    {
      "bufferView": 0,
      "componentType": 5125,
      "count": 4800,
      "max": [
        4799
      ],
      "min": [
        0
      ],
      "type": "SCALAR"
    },
    {
      "bufferView": 1,
      "byteOffset": 115200,
      "componentType": 5126,
      "count": 4800,
      "max": [
        0.95105999708175659,
        1.8480700254440308,
        2.1373200416564941
      ],
      "min": [
        -5.1881699562072754,
        -3.7586100101470947,
        -3.6022601127624512
      ],
      "type": "VEC3"
    },
    {
      "bufferView": 1,
      "byteOffset": 172800,
      "componentType": 5126,
      "count": 4800,
      "max": [
        0.99207723140716553,
        0.94352102279663086,
        0.94352495670318604
      ],
      "min": [
        -0.99207723140716553,
        -0.94352102279663086,
        -0.94352495670318604
      ],
      "type": "VEC3"
    },
    {
      "bufferView": 0,
      "byteOffset": 19200,
      "componentType": 5125,
      "count": 4800,
      "max": [
        4799
      ],
      "min": [
        0
      ],
      "type": "SCALAR"
    },
    {
      "bufferView": 1,
      "byteOffset": 230400,
      "componentType": 5126,
      "count": 9216,
      "max": [
        4.4945402145385742,
        2.8787400722503662,
        3.8939399719238281
      ],
      "min": [
        -4.4945402145385742,
        -2.8787400722503662,
        -3.8939399719238281
      ],
      "type": "VEC3"
    },
    {
      "bufferView": 1,
      "byteOffset": 340992,
      "componentType": 5126,
      "count": 9216,
      "max": [
        1,
        1,
        0.9999963641166687
      ],
      "min": [
        -1,
        -1,
        -0.99999648332595825
      ],
      "type": "VEC3"
    },
    {
      "bufferView": 0,
      "byteOffset": 38400,
      "componentType": 5125,
      "count": 55296,
      "max": [
        9215
      ],
      "min": [
        0
      ],
      "type": "SCALAR"
    },
    {
      "bufferView": 1,
      "byteOffset": 451584,
      "componentType": 5126,
      "count": 4800,
      "max": [
        0.98291999101638794,
        9.2455902099609375,
        10.523070335388184
      ],
      "min": [
        -45.843101501464844,
        -25.834419250488281,
        -10.372079849243164
      ],
      "type": "VEC3"
    },
    {
      "bufferView": 1,
      "byteOffset": 509184,
      "componentType": 5126,
      "count": 4800,
      "max": [
        0.99207723140716553,
        0.94352102279663086,
        0.94352495670318604
      ],
      "min": [
        -0.99207723140716553,
        -0.94352102279663086,
        -0.94352495670318604
      ],
      "type": "VEC3"
    },
    {
      "bufferView": 0,
      "byteOffset": 259584,
      "componentType": 5125,
      "count": 4800,
      "max": [
        4799
      ],
      "min": [
        0
      ],
      "type": "SCALAR"
    }
  ],
  "asset": {
    "extras": {
      "author": "superdancraft (https://sketchfab.com/superdancraft)",
      "license": "CC-BY-4.0 (http://creativecommons.org/licenses/by/4.0/)",
      "source": "https://sketchfab.com/models/1be1b5622d90459596ba4ac340ad1eea",
      "title": "Science Project, the Atom"
    },
    "generator": "Sketchfab-3.18.2",
    "version": "2.0"
  },
  "bufferViews": [
    {
      "buffer": 0,
      "byteLength": 278784,
      "byteOffset": 0,
      "name": "floatBufferViews",
      "target": 34963
    },
    {
      "buffer": 0,
      "byteLength": 566784,
      "byteOffset": 278784,
      "byteStride": 12,
      "name": "floatBufferViews",
      "target": 34962
    }
  ],
  "buffers": [
    {
      "byteLength": 845568,
      "uri": "scene.bin"
    }
  ],
  "materials": [
    {
      "doubleSided": true,
      "emissiveFactor": [
        0,
        0,
        0
      ],
      "name": "BezierCircle",
      "pbrMetallicRoughness": {
        "baseColorFactor": [
          1,
          1,
          1,
          1
        ],
        "metallicFactor": 0,
        "roughnessFactor": 0.20000000000000001
      }
    },
    {
      "doubleSided": true,
      "emissiveFactor": [
        0,
        0,
        0
      ],
      "name": "Material.003",
      "pbrMetallicRoughness": {
        "baseColorFactor": [
          0,
          0.0141327009,
          1,
          1
        ],
        "roughnessFactor": 0.20000000300000001
      }
    },
    {
      "doubleSided": true,
      "emissiveFactor": [
        0,
        0,
        0
      ],
      "name": "Material.004",
      "pbrMetallicRoughness": {
        "baseColorFactor": [
          1,
          0.0026864902999999998,
          0,
          1
        ],
        "roughnessFactor": 0.20000000300000001
      }
    },
    {
      "doubleSided": true,
      "emissiveFactor": [
        0,
        0,
        0
      ],
      "name": "Material.002",
      "pbrMetallicRoughness": {
        "baseColorFactor": [
          1,
          1,
          1,
          1
        ],
        "roughnessFactor": 0.20000000300000001
      }
    }
  ],
  "meshes": [
    {
      "name": "Neutrons",
      "primitives": [
        {
          "attributes": {
            "NORMAL": 1,
            "POSITION": 0
          },
          "indices": 2,
          "material": 3,
          "mode": 4
        }
      ]
    },
    {
      "name": "Protons",
      "primitives": [
        {
          "attributes": {
            "NORMAL": 4,
            "POSITION": 3
          },
          "indices": 5,
          "material": 2,
          "mode": 4
        }
      ]
    },
    {
      "name": "BezierCircle",
      "primitives": [
        {
          "attributes": {
            "NORMAL": 7,
            "POSITION": 6
          },
          "indices": 8,
          "material": 0,
          "mode": 4
        }
      ]
    },
    {
      "name": "Electrons",
      "primitives": [
        {
          "attributes": {
            "NORMAL": 10,
            "POSITION": 9
          },
          "indices": 11,
          "material": 1,
          "mode": 4
        }
      ]
    }
  ],
  "nodes": [
    {
      "children": [
        1
      ],
      "name": "RootNode (gltf orientation matrix)",
      "rotation": [
        -0.70710678118654746,
        -0,
        -0,
        0.70710678118654757
      ]
    },
    {
      "children": [
        2
      ],
      "name": "RootNode (model correction matrix)"
    },
    {
      "children": [
        3,
        5,
        7,
        9
      ],
      "name": "Root"
    },
    {
      "children": [
        4
      ],
      "matrix": [
        1,
        0,
        0,
        0,
        0,
        1,
        0,
        0,
        0,
        0,
        1,
        0,
        -2.0480900000000002,
        -1.7402900000000001,
        -0.24724000000000004,
        1
      ],
      "name": "Neutrons"
    },
    {
      "mesh": 0,
      "name": "Neutrons"
    },
    {
      "children": [
        6
      ],
      "matrix": [
        1,
        0,
        0,
        0,
        0,
        1,
        0,
        0,
        0,
        0,
        1,
        0,
        0.82179000000000013,
        1.1373599999999999,
        -0.074370000000000006,
        1
      ],
      "name": "Protons"
    },
    {
      "mesh": 1,
      "name": "Protons"
    },
    {
      "children": [
        8
      ],
      "matrix": [
        -6.1541299999999985,
        0,
        0,
        0,
        0,
        -6.1541299999999985,
        0,
        0,
        0,
        0,
        -6.1541299999999985,
        0,
        -0.90532000000000001,
        0.90780000000000005,
        0.036860000000000004,
        1
      ],
      "name": "BezierCircle"
    },
    {
      "mesh": 2,
      "name": "BezierCircle"
    },
    {
      "children": [
        10
      ],
      "matrix": [
        1,
        0,
        0,
        0,
        0,
        1,
        0,
        0,
        0,
        0,
        1,
        0,
        26.290569999999999,
        9.5871300000000002,
        -0.16764000000000004,
        1
      ],
      "name": "Electrons"
    },
    {
      "mesh": 3,
      "name": "Electrons"
    }
  ],
  "scene": 0,
  "scenes": [
    {
      "name": "OSG_Scene",
      "nodes": [
        0
      ]
    }
  ]
}

